# xmcd
#
# Track frame offsets: 
#        150
#        15928
#        31502
#        56570
#        70776
#        88410
#        103715
#        123961
#        139299
#        166667
#        180504
#        200194
#
# Disc length: 2882 seconds
#
# Revision: 0
# Processed by: cddbd v1.5.2PL0 Copyright (c) Steve Scherf et al.
# Submitted via: ExactAudioCopy v0.99pb5
#
DISCID=9a0b400c
DTITLE=Cory Morrow - Brand New Me
DYEAR=2010
DGENRE=Country
TTITLE0=Lead Me On
TTITLE1=Brand New Me
TTITLE2=The Road Less Traveled
TTITLE3=Lonesome
TTITLE4=Second Chance
TTITLE5=Running From the Rain
TTITLE6=The Way I Do
TTITLE7=Fade Away
TTITLE8=Never Made It To My Lips
TTITLE9=A Love Like This
TTITLE10=Doctor My Eyes
TTITLE11=Leaving a Bad Feeling Behind
EXTD=
EXTT0=
EXTT1=
EXTT2=
EXTT3=
EXTT4=
EXTT5=
EXTT6=
EXTT7=
EXTT8=
EXTT9=
EXTT10=
EXTT11=
PLAYORDER=
